<svg width="150" height="150" viewBox="0 0 150 150" fill="none" xmlns="http://www.w3.org/2000/svg">
<g id="https://lottiefiles.com/61327-trilo-2">
<mask id="mask0_1_1514" style="mask-type:luminance" maskUnits="userSpaceOnUse" x="0" y="0" width="150" height="150">
<g id="__lottie_element_2062">
<path id="Vector" d="M150 0H0V150H150V0Z" fill="white"/>
</g>
</mask>
<g mask="url(#mask0_1_1514)">
<g id="Group">
<g id="Group_2">
<g id="Group_3">
<path id="Vector_2" d="M24.989 73.0562C12.489 104.956 29.989 122.657 60.589 126.056C67.489 126.756 74.289 126.856 81.189 126.056C111.789 122.756 129.089 104.756 116.689 73.0562C109.289 54.2562 92.289 35.7562 70.789 35.7562C49.389 35.7562 32.289 54.2562 24.989 73.0562Z" fill="#82467B"/>
</g>
<g id="Group_4">
<path id="Vector_3" d="M119 83.2562C100.6 127.656 48.667 117.089 25 106.256C33 121.256 61.5 133.256 95 123.256C121.8 115.256 122.167 93.2562 119 83.2562Z" fill="#773970"/>
</g>
<g id="Group_5">
<path id="Vector_4" d="M89.415 81.7562C92.452 81.7562 94.915 82.8752 94.915 84.2562C94.915 85.6372 92.452 86.7562 89.415 86.7562C86.377 86.7562 83.915 85.6372 83.915 84.2562C83.915 82.8752 86.377 81.7562 89.415 81.7562Z" fill="#FF8182"/>
</g>
<g id="Group_6">
<path id="Vector_5" d="M47.415 81.7562C50.453 81.7562 52.915 82.8752 52.915 84.2562C52.915 85.6372 50.453 86.7562 47.415 86.7562C44.377 86.7562 41.915 85.6372 41.915 84.2562C41.915 82.8752 44.377 81.7562 47.415 81.7562Z" fill="#FF8182"/>
</g>
</g>
<g id="Group_7">
<g id="Group_8">
<path id="Vector_6" d="M62.3778 123.36C60.8927 125.621 57.9858 133.326 58.2372 146.063C56.9739 144.493 53.9879 142.175 52.149 145.46" stroke="black" stroke-linecap="round" stroke-linejoin="round"/>
</g>
</g>
<g id="Group_9">
<g id="Group_10">
<path id="Vector_7" d="M80.4999 123.775C81.4409 126.171 83.041 134.125 81.912 146.775C82.971 145.337 85.37 143.325 86.5 146.775" stroke="black" stroke-linecap="round" stroke-linejoin="round"/>
</g>
</g>
<g id="Group_11">
<g id="Group_12">
<path id="Vector_8" d="M40.423 64.9433C37.946 76.0323 45.125 80.0293 49.024 80.6413C55.354 81.4433 59.231 77.8582 60.377 75.9653C66.226 66.1122 61.237 59.4323 52.808 57.9293C46.065 56.7273 41.742 62.1043 40.423 64.9433Z" fill="white"/>
</g>
<g id="Group_13">
<path id="Vector_9" d="M61.176 66.9213C57.534 60.2613 52.169 61.4183 49.941 62.8283C46.409 65.2143 46.042 68.7223 46.3 70.1783C47.704 77.7023 53.151 78.8583 58.046 75.9003C61.962 73.5323 61.764 68.9273 61.176 66.9213Z" fill="black"/>
</g>
</g>
<g id="Group_14">
<g id="Group_15">
<path id="Vector_10" d="M74.423 64.9433C71.946 76.0323 79.125 80.0293 83.024 80.6413C89.354 81.4433 93.23 77.8582 94.378 75.9653C100.226 66.1122 95.237 59.4323 86.808 57.9293C80.065 56.7273 75.742 62.1043 74.423 64.9433Z" fill="white"/>
</g>
<g id="Group_16">
<path id="Vector_11" d="M90.175 66.9213C86.533 60.2613 81.168 61.4183 78.94 62.8283C75.408 65.2143 75.041 68.7223 75.299 70.1783C76.703 77.7023 82.152 78.8583 87.046 75.9003C90.961 73.5323 90.764 68.9273 90.175 66.9213Z" fill="black"/>
</g>
</g>
<g id="Group_17">
<g id="Group_18">
<path id="Vector_12" d="M65.957 81.7562C65.772 83.8172 66.105 87.9022 68.915 87.7522C71.725 87.6022 72.058 83.6922 71.873 81.7562" stroke="black" stroke-width="0.75" stroke-linecap="round" stroke-linejoin="round"/>
</g>
</g>
<g id="Group_19">
<g id="Group_20">
<path id="Vector_13" d="M42.397 54.9623C43.77 52.3193 47.834 48.1203 53.111 52.4723" stroke="black" stroke-width="0.75" stroke-linecap="round" stroke-linejoin="round"/>
</g>
</g>
<g id="Group_21">
<g id="Group_22">
<path id="Vector_14" d="M82.926 50.3642C85.306 48.6252 90.58 46.7862 92.634 53.3492" stroke="black" stroke-width="0.75" stroke-linecap="round" stroke-linejoin="round"/>
</g>
</g>
<g id="Group_23">
<g id="Group_24">
<path id="Vector_15" d="M8.38501 104.342L9.49301 111.254" stroke="black" stroke-linecap="round" stroke-linejoin="round"/>
</g>
<g id="Group_25">
<path id="Vector_16" d="M8.366 104.23L5.968 110.806" stroke="black" stroke-linecap="round" stroke-linejoin="round"/>
</g>
<g id="Group_26">
<path id="Vector_17" d="M12.681 110.266L8.347 104.77" stroke="black" stroke-linecap="round" stroke-linejoin="round"/>
</g>
</g>
<g id="Group_27">
<g id="Group_28">
<path id="Vector_18" d="M24 79.2562C18.167 81.4232 6.90001 89.6562 8.50001 105.256" stroke="black"/>
</g>
</g>
<g id="Group_29">
<g id="Group_30">
<path id="Vector_19" d="M138.546 65.5467L138.092 58.5609" stroke="black" stroke-linecap="round" stroke-linejoin="round"/>
</g>
<g id="Group_31">
<path id="Vector_20" d="M138.551 65.6599L141.559 59.3374" stroke="black" stroke-linecap="round" stroke-linejoin="round"/>
</g>
<g id="Group_32">
<path id="Vector_21" d="M134.689 59.3024L138.491 65.1815" stroke="black" stroke-linecap="round" stroke-linejoin="round"/>
</g>
</g>
<g id="Group_33">
<g id="Group_34">
<path id="Vector_22" d="M118.06 80.8669C126.64 79.5983 142.613 74.4734 137.865 64.1262" stroke="black"/>
</g>
</g>
</g>
</g>
</g>
</svg>
